<?xml version="1.0" encoding="UTF-8"?>
<svg version="1.1" xmlns="http://www.w3.org/2000/svg" width="500" height="400">
<path d="M0 0 C7.43679179 5.3564832 13.26003999 12.87985836 15.00390625 22.03515625 C16.16413011 33.58620851 13.97904849 42.70743475 6.63671875 51.83203125 C4.9663033 53.75605229 3.26990435 55.64092835 1.51953125 57.4921875 C2.58494141 57.86537109 2.58494141 57.86537109 3.671875 58.24609375 C6.84049116 59.63263498 9.31299002 61.36157187 12.08203125 63.4296875 C13.01144531 64.11933594 13.94085938 64.80898437 14.8984375 65.51953125 C17.51953125 67.4921875 17.51953125 67.4921875 19.546875 69.37109375 C21.52785607 70.79621315 21.52785607 70.79621315 24.03515625 69.87109375 C26.40079074 68.55809222 28.23785943 67.20530151 30.26953125 65.4296875 C36.99183189 60.00145836 44.84625109 56.37728113 52.51953125 52.4921875 C52.04612305 52.16968018 51.57271484 51.84717285 51.08496094 51.51489258 C44.12615872 46.67979908 39.37468505 40.95281314 37.51953125 32.4921875 C36.253076 22.84179852 38.00853928 15.52316297 43.51953125 7.4921875 C49.02989278 0.96923816 56.00471761 -2.64845807 64.40234375 -3.95703125 C72.56167317 -4.43636522 78.74124108 -1.9501996 85.51953125 2.4921875 C86.36515625 3.4203125 87.21078125 4.3484375 88.08203125 5.3046875 C91.01127274 7.93349396 92.06283279 7.77413817 95.89453125 7.9296875 C100.83223738 8.1822216 103.33953745 9.14298593 106.984375 12.43359375 C110.73575014 17.46406372 112.920251 23.33657926 115.05493164 29.19067383 C118.73787606 39.2863752 122.6428378 47.07074968 131.51953125 53.4921875 C134.23199305 54.7971359 134.23199305 54.7971359 136.51953125 55.4921875 C136.18953125 56.4821875 135.85953125 57.4721875 135.51953125 58.4921875 C127.56452823 61.63028122 118.9350557 62.96402898 110.76953125 60.2421875 C104.35395951 56.78764887 100.90920147 53.36386591 98.51953125 46.4921875 C97.65644393 42.51320869 97.03104157 38.53042684 96.51953125 34.4921875 C96.1328125 35.16765625 95.74609375 35.843125 95.34765625 36.5390625 C94.826875 37.43109375 94.30609375 38.323125 93.76953125 39.2421875 C93.2590625 40.12390625 92.74859375 41.005625 92.22265625 41.9140625 C90.51953125 44.4921875 90.51953125 44.4921875 88.25390625 46.5703125 C87.6815625 47.20453125 87.10921875 47.83875 86.51953125 48.4921875 C86.63740904 50.52128014 86.63740904 50.52128014 87.51953125 52.4921875 C89.80612809 54.22705065 92.0260683 55.74050339 94.45703125 57.2421875 C95.83534809 58.13099797 97.21164843 59.0229431 98.5859375 59.91796875 C99.26027832 60.3557666 99.93461914 60.79356445 100.62939453 61.24462891 C116.41415969 71.66314479 126.25588051 86.03757983 130.51953125 104.4921875 C131.03744202 107.1934476 131.30033475 109.73031155 131.51953125 112.4921875 C131.59880859 113.46671875 131.59880859 113.46671875 131.6796875 114.4609375 C132.50661967 133.73205253 124.01967774 150.51914992 111.43786621 164.37966919 C105.09535291 171.20860849 98.43520333 177.74138279 91.84765625 184.33203125 C90.23574774 185.94715841 88.62391223 187.56235843 87.012146 189.17762756 C83.65195504 192.54377367 80.28973698 195.90787989 76.92626953 199.27075195 C72.61829407 203.57862524 68.31727321 207.89337175 64.01793289 212.2098608 C60.69965739 215.53924559 57.37685626 218.86408487 54.05275726 222.1876545 C52.4643363 223.77725435 50.87753397 225.36847338 49.29239655 226.96134758 C47.08148399 229.18205127 44.8643334 231.39633734 42.64550781 233.60913086 C41.99501968 234.26523849 41.34453156 234.92134613 40.67433167 235.59733582 C35.10484988 241.12840102 30.27957241 244.53096307 22.26953125 244.8046875 C21.20992187 244.86076172 21.20992187 244.86076172 20.12890625 244.91796875 C12.19162582 243.62281371 6.90423483 238.45371022 1.48632812 232.96069336 C0.34805321 231.83052292 0.34805321 231.83052292 -0.81321716 230.67752075 C-3.30604291 228.19714707 -5.78413116 225.70261898 -8.26171875 223.20703125 C-10.00166209 221.46724304 -11.74227354 219.72812277 -13.48352051 217.98963928 C-17.12772662 214.34681581 -20.7648776 210.69713434 -24.39697266 207.04223633 C-29.03168037 202.37921933 -33.68170018 197.73184363 -38.33695221 193.08934689 C-41.93387975 189.4994085 -45.52334563 185.90208319 -49.11058044 182.30246162 C-50.82118795 180.58736583 -52.53385056 178.87431704 -54.24867249 177.16343498 C-71.36640634 160.06662401 -86.42847593 142.94072044 -86.57421875 117.375 C-86.13547147 99.20174028 -78.9837764 82.62268372 -66.48046875 69.4921875 C-60.410593 63.82500577 -51.16043439 55.4921875 -42.48046875 55.4921875 C-42.95097656 54.85152344 -43.42148438 54.21085937 -43.90625 53.55078125 C-50.90700751 43.82509121 -54.4350017 35.63596779 -53.48046875 23.4921875 C-51.77554153 13.91280831 -46.88326478 6.90332893 -39.41015625 0.80859375 C-27.06819468 -7.61092255 -12.71776388 -7.7307982 0 0 Z M-46.7109375 99.15625 C-52.49835993 106.79615864 -52.31433737 115.1508736 -51.48046875 124.4921875 C-48.83365617 138.70877931 -32.60212291 150.5111527 -22.71875 160.3515625 C-21.43387658 161.63456498 -20.1492281 162.91779276 -18.86479187 164.20123291 C-15.52494134 167.53731144 -12.18209654 170.87037306 -8.83856201 174.20275879 C-5.41069953 177.62029115 -1.9857562 181.0407464 1.43945312 184.4609375 C8.130001 191.14084215 14.82372414 197.81755491 21.51953125 204.4921875 C25.75240896 202.84007453 28.60629462 199.70091539 31.75341797 196.54882812 C32.36859283 195.94037048 32.9837677 195.33191284 33.61758423 194.70501709 C35.6501394 192.69145953 37.67506699 190.67044031 39.69921875 188.6484375 C41.11387699 187.24020891 42.52868432 185.83213007 43.94363403 184.42419434 C46.91115395 181.46865372 49.87450562 178.50900319 52.83544922 175.546875 C56.61345227 171.76866941 60.40498357 168.00437091 64.20030022 164.24356842 C67.12930067 161.33691497 70.04905454 158.42110472 72.96637344 155.50273132 C74.35927585 154.1121758 75.75539198 152.72483119 77.15487289 151.34089661 C91.97696693 136.87163721 91.97696693 136.87163721 96.83203125 117.3671875 C96.82173961 107.89659326 94.81384932 101.59760696 88.33203125 94.6171875 C81.30677085 88.06645045 73.3642414 85.12827884 63.765625 85.2734375 C53.83217013 86.24086963 46.78668209 91.04840175 39.64453125 97.7421875 C39.12785889 98.22163818 38.61118652 98.70108887 38.07885742 99.19506836 C30.41547751 105.65946337 30.41547751 105.65946337 24.51953125 113.4921875 C22.45703125 114.1171875 22.45703125 114.1171875 20.51953125 114.4921875 C20.26300781 113.91259277 20.00648438 113.33299805 19.7421875 112.73583984 C17.46718729 108.56106908 13.85542724 105.45882513 10.51953125 102.1171875 C9.80152344 101.3746875 9.08351562 100.6321875 8.34375 99.8671875 C-0.02205382 91.45680569 -8.41135225 86.1429227 -20.35546875 85.1796875 C-31.54336797 85.51003886 -39.65390573 90.81734821 -46.7109375 99.15625 Z " fill="#FC2C55" transform="translate(224.48046875,80.5078125)"/>
<path d="M0 0 C2.5390625 1.6640625 2.5390625 1.6640625 5.1015625 4.4765625 C8.03080399 7.10536896 9.08236404 6.94601317 12.9140625 7.1015625 C17.85176863 7.3540966 20.3590687 8.31486093 24.00390625 11.60546875 C27.75528139 16.63593872 29.93978225 22.50845426 32.07446289 28.36254883 C35.75740731 38.4582502 39.66236905 46.24262468 48.5390625 52.6640625 C51.2515243 53.9690109 51.2515243 53.9690109 53.5390625 54.6640625 C53.2090625 55.6540625 52.8790625 56.6440625 52.5390625 57.6640625 C44.58405948 60.80215622 35.95458695 62.13590398 27.7890625 59.4140625 C21.37349076 55.95952387 17.92873272 52.53574091 15.5390625 45.6640625 C14.67597518 41.68508369 14.05057282 37.70230184 13.5390625 33.6640625 C13.15234375 34.33953125 12.765625 35.015 12.3671875 35.7109375 C11.84640625 36.60296875 11.325625 37.495 10.7890625 38.4140625 C10.27859375 39.29578125 9.768125 40.1775 9.2421875 41.0859375 C7.5390625 43.6640625 7.5390625 43.6640625 5.33203125 45.86328125 C4.44451172 46.75466797 4.44451172 46.75466797 3.5390625 47.6640625 C3.62132456 50.37871052 4.29947216 51.39572131 6.1015625 53.4140625 C6.5759375 53.8265625 7.0503125 54.2390625 7.5390625 54.6640625 C5.8890625 54.6640625 4.2390625 54.6640625 2.5390625 54.6640625 C2.5390625 54.0040625 2.5390625 53.3440625 2.5390625 52.6640625 C1.5490625 52.3340625 0.5590625 52.0040625 -0.4609375 51.6640625 C-0.7909375 50.0140625 -1.1209375 48.3640625 -1.4609375 46.6640625 C-0.6771875 46.5815625 0.1065625 46.4990625 0.9140625 46.4140625 C3.64779759 45.93947182 3.64779759 45.93947182 4.7890625 43.7890625 C5.38986325 42.08679371 5.96821396 40.37660812 6.5390625 38.6640625 C7.1990625 38.3340625 7.8590625 38.0040625 8.5390625 37.6640625 C9.12209802 35.08840797 9.12209802 35.08840797 9.4765625 32.0390625 C10.22332686 27.04878003 11.37099855 23.1887177 13.5390625 18.6640625 C13.91214881 17.34130194 14.26952665 16.01174173 14.5390625 14.6640625 C13.2190625 14.6640625 11.8990625 14.6640625 10.5390625 14.6640625 C10.5390625 14.0040625 10.5390625 13.3440625 10.5390625 12.6640625 C13.1790625 12.6640625 15.8190625 12.6640625 18.5390625 12.6640625 C18.5390625 12.0040625 18.5390625 11.3440625 18.5390625 10.6640625 C14.5790625 10.6640625 10.6190625 10.6640625 6.5390625 10.6640625 C6.5390625 10.0040625 6.5390625 9.3440625 6.5390625 8.6640625 C5.8790625 8.6640625 5.2190625 8.6640625 4.5390625 8.6640625 C4.5390625 8.0040625 4.5390625 7.3440625 4.5390625 6.6640625 C3.8790625 6.6640625 3.2190625 6.6640625 2.5390625 6.6640625 C1.8790625 5.6740625 1.2190625 4.6840625 0.5390625 3.6640625 C-1.77059598 2.61053407 -4.1039149 1.60687154 -6.4609375 0.6640625 C-6.9559375 0.1690625 -6.9559375 0.1690625 -7.4609375 -0.3359375 C-8.80108971 -0.49176053 -10.14852653 -0.58637892 -11.49609375 -0.65234375 C-12.70942383 -0.71518555 -12.70942383 -0.71518555 -13.94726562 -0.77929688 C-14.79740234 -0.81861328 -15.64753906 -0.85792969 -16.5234375 -0.8984375 C-17.37744141 -0.94162109 -18.23144531 -0.98480469 -19.11132812 -1.02929688 C-21.22765787 -1.13570452 -23.34427563 -1.23635481 -25.4609375 -1.3359375 C-25.4609375 -0.6759375 -25.4609375 -0.0159375 -25.4609375 0.6640625 C-28.4609375 2.6640625 -28.4609375 2.6640625 -31.4609375 2.6640625 C-31.4609375 3.3240625 -31.4609375 3.9840625 -31.4609375 4.6640625 C-32.7809375 4.6640625 -34.1009375 4.6640625 -35.4609375 4.6640625 C-35.4609375 5.3240625 -35.4609375 5.9840625 -35.4609375 6.6640625 C-36.1209375 6.6640625 -36.7809375 6.6640625 -37.4609375 6.6640625 C-37.4609375 7.9840625 -37.4609375 9.3040625 -37.4609375 10.6640625 C-38.1209375 10.6640625 -38.7809375 10.6640625 -39.4609375 10.6640625 C-39.4196875 11.5715625 -39.3784375 12.4790625 -39.3359375 13.4140625 C-39.45625306 16.5422671 -39.8524083 18.05020256 -41.4609375 20.6640625 C-42.1209375 20.6640625 -42.7809375 20.6640625 -43.4609375 20.6640625 C-43.1309375 24.2940625 -42.8009375 27.9240625 -42.4609375 31.6640625 C-41.9659375 31.1690625 -41.9659375 31.1690625 -41.4609375 30.6640625 C-39.79476635 30.62342418 -38.12705655 30.6213415 -36.4609375 30.6640625 C-36.7909375 31.9840625 -37.1209375 33.3040625 -37.4609375 34.6640625 C-38.1209375 34.6640625 -38.7809375 34.6640625 -39.4609375 34.6640625 C-39.4609375 36.6440625 -39.4609375 38.6240625 -39.4609375 40.6640625 C-38.4709375 40.6640625 -37.4809375 40.6640625 -36.4609375 40.6640625 C-36.1309375 42.6440625 -35.8009375 44.6240625 -35.4609375 46.6640625 C-36.1209375 46.6640625 -36.7809375 46.6640625 -37.4609375 46.6640625 C-43.73379731 38.94361966 -46.20134945 32.08189285 -45.93359375 22.046875 C-44.75100562 13.58306246 -40.38781189 6.28686861 -33.6484375 1.06640625 C-22.37378653 -6.16145036 -11.72328797 -6.39176682 0 0 Z " fill="#F92C55" transform="translate(307.4609375,81.3359375)"/>
<path d="M0 0 C0.66 0.33 1.32 0.66 2 1 C1.67 3.64 1.34 6.28 1 9 C0.34 9 -0.32 9 -1 9 C-2.61668866 14.05462658 -3.42630147 18.81314951 -3.6875 24.125 C-3.72584961 24.86492187 -3.76419922 25.60484375 -3.80371094 26.3671875 C-4.28027779 37.31406967 -4.269692 48.595462 2 58 C2 59.32 2 60.64 2 62 C2.66 62 3.32 62 4 62 C4 63.32 4 64.64 4 66 C4.66 66 5.32 66 6 66 C6.33 67.32 6.66 68.64 7 70 C7.66 70 8.32 70 9 70 C9.33 71.32 9.66 72.64 10 74 C10.66 74 11.32 74 12 74 C12 74.66 12 75.32 12 76 C12.66 76 13.32 76 14 76 C14.33 77.32 14.66 78.64 15 80 C15.99 80 16.98 80 18 80 C18 80.66 18 81.32 18 82 C18.66 82 19.32 82 20 82 C20 82.66 20 83.32 20 84 C20.66 84 21.32 84 22 84 C22 84.66 22 85.32 22 86 C22.66 86 23.32 86 24 86 C24 86.66 24 87.32 24 88 C24.66 88 25.32 88 26 88 C26 88.66 26 89.32 26 90 C26.66 90 27.32 90 28 90 C28 90.66 28 91.32 28 92 C28.66 92 29.32 92 30 92 C30 92.66 30 93.32 30 94 C30.99 94 31.98 94 33 94 C32.67 93.01 32.34 92.02 32 91 C37.75 92.875 37.75 92.875 40 94 C40 94.66 40 95.32 40 96 C40.66 96 41.32 96 42 96 C42 96.66 42 97.32 42 98 C42.66 98 43.32 98 44 98 C46 103.625 46 103.625 46 107 C47.6396875 107.185625 47.6396875 107.185625 49.3125 107.375 C53 108 53 108 56 110 C56 110.66 56 111.32 56 112 C56.66 112 57.32 112 58 112 C58 112.66 58 113.32 58 114 C58.66 114 59.32 114 60 114 C62 119.625 62 119.625 62 123 C63.6396875 123.185625 63.6396875 123.185625 65.3125 123.375 C69 124 69 124 72 126 C72 126.66 72 127.32 72 128 C72.66 128 73.32 128 74 128 C74 128.66 74 129.32 74 130 C74.66 130 75.32 130 76 130 C76.66 131.98 77.32 133.96 78 136 C77.34 136.33 76.68 136.66 76 137 C74 135.1875 74 135.1875 72 133 C72 132.01 72 131.02 72 130 C71.34 130 70.68 130 70 130 C68.375 128.5 68.375 128.5 67 127 C66.67 127.99 66.34 128.98 66 130 C66.66 130 67.32 130 68 130 C68 130.66 68 131.32 68 132 C68.66 132 69.32 132 70 132 C70 132.66 70 133.32 70 134 C70.66 134 71.32 134 72 134 C72 134.66 72 135.32 72 136 C72.66 136 73.32 136 74 136 C74 136.66 74 137.32 74 138 C74.66 138 75.32 138 76 138 C76 138.66 76 139.32 76 140 C76.66 140 77.32 140 78 140 C78.33 141.32 78.66 142.64 79 144 C79.99 144 80.98 144 82 144 C82 144.66 82 145.32 82 146 C82.66 146 83.32 146 84 146 C84 146.66 84 147.32 84 148 C84.66 148 85.32 148 86 148 C86 148.66 86 149.32 86 150 C87.65 150 89.3 150 91 150 C90.34 151.32 89.68 152.64 89 154 C86.0562055 152.67130534 83.97150969 151.22362468 81.68756104 148.94825745 C81.05414795 148.32192917 80.42073486 147.69560089 79.76812744 147.05029297 C79.08442078 146.36410889 78.40071411 145.6779248 77.69628906 144.97094727 C76.96728394 144.24705307 76.23827881 143.52315887 75.48718262 142.77732849 C73.07479075 140.37885195 70.66991751 137.97299991 68.265625 135.56640625 C66.58678802 133.89145749 64.90772793 132.21673234 63.22845459 130.54222107 C59.70454285 127.02577746 56.18454014 123.50547494 52.66699219 119.98266602 C48.17900049 115.48890439 43.6798059 111.00655351 39.17731094 106.52732944 C35.7025779 103.06740417 32.23487766 99.60049519 28.76909637 96.13160515 C27.11459875 94.47761804 25.45776161 92.82596749 23.79846954 91.17679024 C6.80068941 74.26987657 -7.94949676 57.18723543 -8.09375 31.8828125 C-7.81651319 20.56073169 -4.74894429 10.21023022 0 0 Z " fill="#F72E52" transform="translate(146,166)"/>
<path d="M0 0 C2.5390625 1.6640625 2.5390625 1.6640625 5.1015625 4.4765625 C8.03080399 7.10536896 9.08236404 6.94601317 12.9140625 7.1015625 C17.94959687 7.35909992 20.5664018 8.30279021 24.12109375 11.8828125 C26.55284212 14.93757078 28.07157976 18.05941244 29.5390625 21.6640625 C30.00828125 22.74042969 30.4775 23.81679687 30.9609375 24.92578125 C34.76182611 34.04995741 34.76182611 34.04995741 33.671875 37.0546875 C33.29804688 37.58578125 32.92421875 38.116875 32.5390625 38.6640625 C28.67455774 35.13560163 28.28932397 31.51568364 27.4765625 26.4765625 C27.21166016 24.84654297 27.21166016 24.84654297 26.94140625 23.18359375 C26.80863281 22.35214844 26.67585938 21.52070312 26.5390625 20.6640625 C25.8790625 20.6640625 25.2190625 20.6640625 24.5390625 20.6640625 C23.5490625 17.1990625 23.5490625 17.1990625 22.5390625 13.6640625 C21.2190625 13.3340625 19.8990625 13.0040625 18.5390625 12.6640625 C18.5390625 12.0040625 18.5390625 11.3440625 18.5390625 10.6640625 C14.5790625 10.6640625 10.6190625 10.6640625 6.5390625 10.6640625 C6.5390625 10.0040625 6.5390625 9.3440625 6.5390625 8.6640625 C5.8790625 8.6640625 5.2190625 8.6640625 4.5390625 8.6640625 C4.5390625 8.0040625 4.5390625 7.3440625 4.5390625 6.6640625 C3.8790625 6.6640625 3.2190625 6.6640625 2.5390625 6.6640625 C1.8790625 5.6740625 1.2190625 4.6840625 0.5390625 3.6640625 C-1.77059598 2.61053407 -4.1039149 1.60687154 -6.4609375 0.6640625 C-6.9559375 0.1690625 -6.9559375 0.1690625 -7.4609375 -0.3359375 C-8.80108971 -0.49176053 -10.14852653 -0.58637892 -11.49609375 -0.65234375 C-12.70942383 -0.71518555 -12.70942383 -0.71518555 -13.94726562 -0.77929688 C-14.79740234 -0.81861328 -15.64753906 -0.85792969 -16.5234375 -0.8984375 C-17.37744141 -0.94162109 -18.23144531 -0.98480469 -19.11132812 -1.02929688 C-21.22765787 -1.13570452 -23.34427563 -1.23635481 -25.4609375 -1.3359375 C-25.4609375 -0.6759375 -25.4609375 -0.0159375 -25.4609375 0.6640625 C-28.4609375 2.6640625 -28.4609375 2.6640625 -31.4609375 2.6640625 C-31.4609375 3.3240625 -31.4609375 3.9840625 -31.4609375 4.6640625 C-32.7809375 4.6640625 -34.1009375 4.6640625 -35.4609375 4.6640625 C-35.4609375 5.3240625 -35.4609375 5.9840625 -35.4609375 6.6640625 C-36.1209375 6.6640625 -36.7809375 6.6640625 -37.4609375 6.6640625 C-37.4609375 7.9840625 -37.4609375 9.3040625 -37.4609375 10.6640625 C-38.1209375 10.6640625 -38.7809375 10.6640625 -39.4609375 10.6640625 C-39.4196875 11.5715625 -39.3784375 12.4790625 -39.3359375 13.4140625 C-39.45625306 16.5422671 -39.8524083 18.05020256 -41.4609375 20.6640625 C-42.1209375 20.6640625 -42.7809375 20.6640625 -43.4609375 20.6640625 C-43.1309375 24.2940625 -42.8009375 27.9240625 -42.4609375 31.6640625 C-41.9659375 31.1690625 -41.9659375 31.1690625 -41.4609375 30.6640625 C-39.79476635 30.62342418 -38.12705655 30.6213415 -36.4609375 30.6640625 C-36.7909375 31.9840625 -37.1209375 33.3040625 -37.4609375 34.6640625 C-38.1209375 34.6640625 -38.7809375 34.6640625 -39.4609375 34.6640625 C-39.4609375 36.6440625 -39.4609375 38.6240625 -39.4609375 40.6640625 C-38.4709375 40.6640625 -37.4809375 40.6640625 -36.4609375 40.6640625 C-36.1309375 42.6440625 -35.8009375 44.6240625 -35.4609375 46.6640625 C-36.1209375 46.6640625 -36.7809375 46.6640625 -37.4609375 46.6640625 C-43.73379731 38.94361966 -46.20134945 32.08189285 -45.93359375 22.046875 C-44.75100562 13.58306246 -40.38781189 6.28686861 -33.6484375 1.06640625 C-22.37378653 -6.16145036 -11.72328797 -6.39176682 0 0 Z " fill="#DA3157" transform="translate(307.4609375,81.3359375)"/>
<path d="M0 0 C3.49312737 1.16437579 3.89080858 2.32135273 5.76953125 5.30859375 C9.08698661 9.86877842 13.59186475 13.36117114 19 15 C18.67 15.99 18.34 16.98 18 18 C10.04499698 21.13809372 1.41552445 22.47184148 -6.75 19.75 C-13.33878974 16.20219014 -16.07518057 12.73198661 -19 6 C-18.34 5.67 -17.68 5.34 -17 5 C-16.67 5.66 -16.34 6.32 -16 7 C-15.34 7 -14.68 7 -14 7 C-13.67 7.99 -13.34 8.98 -13 10 C-12.01 10.33 -11.02 10.66 -10 11 C-10 10.34 -10 9.68 -10 9 C-7.36 9 -4.72 9 -2 9 C-2 8.34 -2 7.68 -2 7 C-2.66 7 -3.32 7 -4 7 C-4 6.34 -4 5.68 -4 5 C-3.34 5 -2.68 5 -2 5 C-1.34 3.35 -0.68 1.7 0 0 Z " fill="#FA2C53" transform="translate(342,121)"/>
<path d="M0 0 C0.99 0 1.98 0 3 0 C1.34950815 12.83361906 -15.94246349 25.23233881 -24.65234375 33.91796875 C-26.36134033 35.62831449 -28.07004008 37.33895687 -29.77845764 39.04988098 C-33.33808186 42.61243744 -36.90125792 46.17139153 -40.46704102 49.7277832 C-45.04610305 54.29537351 -49.61602243 58.87199008 -54.1833868 63.45127392 C-57.69951057 66.97460126 -61.22035446 70.49318053 -64.74267769 74.01030922 C-66.43112709 75.69742199 -68.11808527 77.3860285 -69.80354118 79.07613182 C-72.14670816 81.42434765 -74.49613643 83.76610857 -76.84741211 86.10620117 C-77.54608902 86.80892654 -78.24476593 87.51165192 -78.96461487 88.235672 C-79.921064 89.18366165 -79.921064 89.18366165 -80.89683533 90.15080261 C-81.72827261 90.98110882 -81.72827261 90.98110882 -82.57650661 91.8281889 C-84 93 -84 93 -86 93 C-86 91.35 -86 89.7 -86 88 C-84.68 88 -83.36 88 -82 88 C-82 87.34 -82 86.68 -82 86 C-81.34 86 -80.68 86 -80 86 C-80 85.34 -80 84.68 -80 84 C-79.34 84 -78.68 84 -78 84 C-78 83.34 -78 82.68 -78 82 C-77.34 82 -76.68 82 -76 82 C-76 81.34 -76 80.68 -76 80 C-75.34 80 -74.68 80 -74 80 C-74 79.34 -74 78.68 -74 78 C-73.34 78 -72.68 78 -72 78 C-72 77.34 -72 76.68 -72 76 C-71.34 76 -70.68 76 -70 76 C-70 75.34 -70 74.68 -70 74 C-69.34 74 -68.68 74 -68 74 C-68 73.34 -68 72.68 -68 72 C-67.34 72 -66.68 72 -66 72 C-66 71.34 -66 70.68 -66 70 C-65.34 70 -64.68 70 -64 70 C-64 69.34 -64 68.68 -64 68 C-63.34 68 -62.68 68 -62 68 C-62 67.34 -62 66.68 -62 66 C-61.34 66 -60.68 66 -60 66 C-60 64.68 -60 63.36 -60 62 C-58.68 62 -57.36 62 -56 62 C-56 61.34 -56 60.68 -56 60 C-55.34 60 -54.68 60 -54 60 C-54 59.34 -54 58.68 -54 58 C-53.34 58 -52.68 58 -52 58 C-52 57.34 -52 56.68 -52 56 C-51.34 56 -50.68 56 -50 56 C-50 55.34 -50 54.68 -50 54 C-49.34 54 -48.68 54 -48 54 C-48 53.34 -48 52.68 -48 52 C-47.34 52 -46.68 52 -46 52 C-46 51.34 -46 50.68 -46 50 C-45.34 50 -44.68 50 -44 50 C-44 48.68 -44 47.36 -44 46 C-42.68 46 -41.36 46 -40 46 C-40 45.34 -40 44.68 -40 44 C-39.34 44 -38.68 44 -38 44 C-38 42.68 -38 41.36 -38 40 C-36.68 40 -35.36 40 -34 40 C-34 39.34 -34 38.68 -34 38 C-33.34 38 -32.68 38 -32 38 C-32 37.34 -32 36.68 -32 36 C-31.34 36 -30.68 36 -30 36 C-30 35.34 -30 34.68 -30 34 C-29.34 34 -28.68 34 -28 34 C-28 32.68 -28 31.36 -28 30 C-26.68 30 -25.36 30 -24 30 C-24 29.34 -24 28.68 -24 28 C-23.34 28 -22.68 28 -22 28 C-22 27.34 -22 26.68 -22 26 C-21.34 26 -20.68 26 -20 26 C-20 25.34 -20 24.68 -20 24 C-19.34 24 -18.68 24 -18 24 C-18 23.34 -18 22.68 -18 22 C-16.125 19.875 -16.125 19.875 -14 18 C-13.34 18 -12.68 18 -12 18 C-12 16.68 -12 15.36 -12 14 C-10.68 14 -9.36 14 -8 14 C-8 13.34 -8 12.68 -8 12 C-7.34 12 -6.68 12 -6 12 C-6 10.68 -6 9.36 -6 8 C-5.01 7.67 -4.02 7.34 -3 7 C-2.67 6.01 -2.34 5.02 -2 4 C-1.34 4 -0.68 4 0 4 C0 2.68 0 1.36 0 0 Z " fill="#D03356" transform="translate(344,228)"/>
<path d="M0 0 C3.16658663 -0.05880804 6.33302993 -0.09386406 9.5 -0.125 C10.386875 -0.14175781 11.27375 -0.15851563 12.1875 -0.17578125 C17.82323788 -0.2172205 22.59300232 0.39558714 28 2 C28 2.66 28 3.32 28 4 C28.66 4 29.32 4 30 4 C30 4.66 30 5.32 30 6 C31.98 6 33.96 6 36 6 C36 7.32 36 8.64 36 10 C36.66 10 37.32 10 38 10 C38 10.66 38 11.32 38 12 C38.66 12 39.32 12 40 12 C40 12.66 40 13.32 40 14 C40.66 14 41.32 14 42 14 C42 14.66 42 15.32 42 16 C42.66 16 43.32 16 44 16 C44 16.66 44 17.32 44 18 C44.66 18 45.32 18 46 18 C46 18.66 46 19.32 46 20 C46.66 20 47.32 20 48 20 C48 20.66 48 21.32 48 22 C48.66 22 49.32 22 50 22 C50 22.66 50 23.32 50 24 C50.66 24 51.32 24 52 24 C52 24.66 52 25.32 52 26 C52.66 26 53.32 26 54 26 C54 26.66 54 27.32 54 28 C54.66 28 55.32 28 56 28 C56 26.68 56 25.36 56 24 C57.32 24 58.64 24 60 24 C60 22.68 60 21.36 60 20 C59.34 20 58.68 20 58 20 C58 19.34 58 18.68 58 18 C57.34 18 56.68 18 56 18 C56 16.68 56 15.36 56 14 C56.66 14 57.32 14 58 14 C58 14.66 58 15.32 58 16 C58.66 16 59.32 16 60 16 C60 16.66 60 17.32 60 18 C60.66 18 61.32 18 62 18 C62 18.66 62 19.32 62 20 C62.66 20 63.32 20 64 20 C64 19.34 64 18.68 64 18 C64.66 18 65.32 18 66 18 C66 17.34 66 16.68 66 16 C66.66 16 67.32 16 68 16 C68 15.34 68 14.68 68 14 C68.66 14 69.32 14 70 14 C70 13.34 70 12.68 70 12 C70.99 12 71.98 12 73 12 C71.35305751 16.27175708 68.22947516 18.95870017 65 22.0625 C60.67183338 26.24121866 60.67183338 26.24121866 57 31 C53 31 53 31 51.5 29.671875 C51.005 29.03765625 50.51 28.4034375 50 27.75 C40.8151251 16.6966816 30.85411866 5.39582559 16 3 C9.41783589 2.46918031 4.20891972 3.87154262 -2 6 C-2.99 6.33 -3.98 6.66 -5 7 C-5.33 6.01 -5.66 5.02 -6 4 C-5.34 4 -4.68 4 -4 4 C-4 3.34 -4 2.68 -4 2 C-2.68 2 -1.36 2 0 2 C0 1.34 0 0.68 0 0 Z " fill="#D43256" transform="translate(192,164)"/>
<path d="M0 0 C0.66 0.33 1.32 0.66 2 1 C1.67 3.64 1.34 6.28 1 9 C0.34 9 -0.32 9 -1 9 C-2.61668866 14.05462658 -3.42630147 18.81314951 -3.6875 24.125 C-3.72584961 24.86492187 -3.76419922 25.60484375 -3.80371094 26.3671875 C-4.28027779 37.31406967 -4.269692 48.595462 2 58 C2 59.32 2 60.64 2 62 C2.66 62 3.32 62 4 62 C4 63.32 4 64.64 4 66 C4.66 66 5.32 66 6 66 C6.33 67.32 6.66 68.64 7 70 C7.66 70 8.32 70 9 70 C9.33 71.32 9.66 72.64 10 74 C10.66 74 11.32 74 12 74 C12 74.66 12 75.32 12 76 C12.66 76 13.32 76 14 76 C14.33 77.32 14.66 78.64 15 80 C15.99 80 16.98 80 18 80 C18 80.66 18 81.32 18 82 C18.66 82 19.32 82 20 82 C20 82.66 20 83.32 20 84 C20.66 84 21.32 84 22 84 C22 84.66 22 85.32 22 86 C22.66 86 23.32 86 24 86 C24 86.66 24 87.32 24 88 C24.66 88 25.32 88 26 88 C26 88.66 26 89.32 26 90 C26.66 90 27.32 90 28 90 C28 90.66 28 91.32 28 92 C28.66 92 29.32 92 30 92 C30.33 93.32 30.66 94.64 31 96 C16.24861876 89.53338696 2.47059748 69.86851221 -3.7421875 55.5078125 C-10.52981926 36.57833014 -8.44069975 18.14750446 0 0 Z " fill="#DA375A" transform="translate(146,166)"/>
<path d="M0 0 C0.66 0 1.32 0 2 0 C2.16113281 0.58265625 2.32226562 1.1653125 2.48828125 1.765625 C4.33638624 7.33621634 6.80166102 11.22562342 10.8215332 15.50683594 C11.30250867 16.02068722 11.78348413 16.5345385 12.27903461 17.06396103 C18.23550967 23.3847668 24.38867443 29.51357565 30.54296875 35.640625 C31.80542198 36.90120716 33.06765018 38.16201473 34.32966614 39.42303467 C37.6103325 42.69993004 40.89399295 45.97380827 44.17834473 49.24700928 C47.54588523 52.60421739 50.91050459 55.96435047 54.27539062 59.32421875 C60.8474481 65.88563481 67.42268093 72.44385859 74 79 C77.18086518 77.49053489 79.29869906 75.92058175 81.75 73.375 C82.36359375 72.74335938 82.9771875 72.11171875 83.609375 71.4609375 C84.06828125 70.97882813 84.5271875 70.49671875 85 70 C85.66 70.33 86.32 70.66 87 71 C86.34 71.99 85.68 72.98 85 74 C84.34 74 83.68 74 83 74 C83 74.66 83 75.32 83 76 C81.35546875 77.54296875 81.35546875 77.54296875 79.1875 79.1875 C78.47980469 79.73792969 77.77210938 80.28835938 77.04296875 80.85546875 C76.36878906 81.23316406 75.69460937 81.61085938 75 82 C71.6712479 80.89041597 70.98510301 80.07455496 68.8125 77.4375 C64.40570828 72.2481068 59.81630285 67.19809003 54.4375 63 C51.49818123 60.58825127 49.21552063 57.82835357 46.75390625 54.94140625 C44.89867789 52.79620309 44.89867789 52.79620309 42 50.5 C39.55485906 48.46238255 37.71987324 46.59364304 35.6875 44.1875 C32.47856599 40.41186683 28.94676111 37.24992286 25.203125 34.015625 C22.40532676 31.45593725 20.00847099 28.65134576 17.5703125 25.75390625 C15.59588706 23.54864002 13.31280453 21.83663889 11 20 C10.67 19.01 10.34 18.02 10 17 C9.34 17 8.68 17 8 17 C8 16.34 8 15.68 8 15 C7.34 15 6.68 15 6 15 C6 14.34 6 13.68 6 13 C5.34 13 4.68 13 4 13 C3.34 11.02 2.68 9.04 2 7 C1.34 7 0.68 7 0 7 C0 4.69 0 2.38 0 0 Z " fill="#D51C41" transform="translate(172,205)"/>
<path d="M0 0 C0.66 0 1.32 0 2 0 C2 6.93 2 13.86 2 21 C2.66 21 3.32 21 4 21 C4 21.66 4 22.32 4 23 C5.32 23 6.64 23 8 23 C8.16276042 25.01822917 8.32552083 27.03645833 8.48828125 29.0546875 C8.87393036 31.39519216 8.87393036 31.39519216 12 33 C12 33.66 12 34.32 12 35 C12.66 35 13.32 35 14 35 C14 37.64 14 40.28 14 43 C12.68 42.67 11.36 42.34 10 42 C10 41.01 10 40.02 10 39 C8.02 39.66 6.04 40.32 4 41 C4 41.66 4 42.32 4 43 C2.68 43 1.36 43 0 43 C0 43.66 0 44.32 0 45 C-1.32 45 -2.64 45 -4 45 C-4 46.32 -4 47.64 -4 49 C-4.66 49 -5.32 49 -6 49 C-6 49.66 -6 50.32 -6 51 C-7.65 51 -9.3 51 -11 51 C-11 50.01 -11 49.02 -11 48 C-5.68380848 43.30475708 2.70828672 37 10 37 C9.29423828 36.03900391 9.29423828 36.03900391 8.57421875 35.05859375 C0.93043719 24.43959287 -2.61410475 15.08815468 -0.5 1.875 C-0.335 1.25625 -0.17 0.6375 0 0 Z " fill="#E4395E" transform="translate(172,99)"/>
<path d="M0 0 C0.66 0 1.32 0 2 0 C2 0.66 2 1.32 2 2 C2.66 2 3.32 2 4 2 C4 2.66 4 3.32 4 4 C4.66 4 5.32 4 6 4 C6 4.66 6 5.32 6 6 C6.66 6 7.32 6 8 6 C8 6.66 8 7.32 8 8 C8.66 8 9.32 8 10 8 C10 8.66 10 9.32 10 10 C10.66 10 11.32 10 12 10 C12 10.66 12 11.32 12 12 C12.66 12 13.32 12 14 12 C14 12.66 14 13.32 14 14 C14.66 14 15.32 14 16 14 C16 14.66 16 15.32 16 16 C16.66 16 17.32 16 18 16 C18 16.66 18 17.32 18 18 C18.66 18 19.32 18 20 18 C20 18.66 20 19.32 20 20 C20.66 20 21.32 20 22 20 C22 20.66 22 21.32 22 22 C22.66 22 23.32 22 24 22 C24 22.66 24 23.32 24 24 C24.66 24 25.32 24 26 24 C26 24.66 26 25.32 26 26 C26.66 26 27.32 26 28 26 C28 26.66 28 27.32 28 28 C28.66 28 29.32 28 30 28 C30 28.66 30 29.32 30 30 C30.66 30 31.32 30 32 30 C32 30.66 32 31.32 32 32 C32.66 32 33.32 32 34 32 C34 32.66 34 33.32 34 34 C34.66 34 35.32 34 36 34 C36 34.66 36 35.32 36 36 C36.66 36 37.32 36 38 36 C38 36.66 38 37.32 38 38 C38.66 38 39.32 38 40 38 C40 38.66 40 39.32 40 40 C40.66 40 41.32 40 42 40 C42 40.66 42 41.32 42 42 C42.66 42 43.32 42 44 42 C44 42.66 44 43.32 44 44 C44.66 44 45.32 44 46 44 C46.495 45.98 46.495 45.98 47 48 C47.99 48 48.98 48 50 48 C50 48.66 50 49.32 50 50 C50.66 50 51.32 50 52 50 C52 50.66 52 51.32 52 52 C52.66 52 53.32 52 54 52 C54 52.66 54 53.32 54 54 C55.65 54 57.3 54 59 54 C58.34 55.32 57.68 56.64 57 58 C53.16090929 56.41454038 50.71381048 53.97368724 47.78833008 51.06298828 C47.2821666 50.56193573 46.77600311 50.06088318 46.25450134 49.54464722 C44.58765274 47.89166665 42.92830542 46.23139298 41.26953125 44.5703125 C40.11201095 43.41667987 38.95426744 42.26327118 37.79631042 41.1100769 C35.37291088 38.69413299 32.95341591 36.27435748 30.53637695 33.85205078 C27.43773761 30.74760932 24.32786622 27.65469775 21.21475697 24.56477547 C18.82207784 22.1868206 16.43635351 19.80198297 14.05258751 17.41509628 C12.90865286 16.27167522 11.7623506 15.13061777 10.613657 13.99197769 C9.00967085 12.40031676 7.41550372 10.79942098 5.82348633 9.19580078 C4.91399734 8.28694122 4.00450836 7.37808167 3.06745911 6.44168091 C1.12339627 4.14573169 0.34810267 2.93737546 0 0 Z " fill="#D72D52" transform="translate(178,262)"/>
<path d="M0 0 C0.495 1.485 0.495 1.485 1 3 C-2.22791555 5.1519437 -3.28400809 5.20086443 -7 5 C-7 5.66 -7 6.32 -7 7 C-8.32 7 -9.64 7 -11 7 C-11 8.65 -11 10.3 -11 12 C-13.31 12.66 -15.62 13.32 -18 14 C-18.33 15.65 -18.66 17.3 -19 19 C-19.66 19 -20.32 19 -21 19 C-21 20.32 -21 21.64 -21 23 C-22.32 23 -23.64 23 -25 23 C-25 22.34 -25 21.68 -25 21 C-27.31 21 -29.62 21 -32 21 C-32.33 22.32 -32.66 23.64 -33 25 C-33.66 25 -34.32 25 -35 25 C-34.505 20.545 -34.505 20.545 -34 16 C-34.99 15.67 -35.98 15.34 -37 15 C-37.33 13.35 -37.66 11.7 -38 10 C-35.47146954 11.4749761 -33.17487759 12.84151718 -31 14.8125 C-30.34 15.204375 -29.68 15.59625 -29 16 C-25.36827064 14.88897753 -22.86539877 13.25816262 -20 10.8125 C-15.1418941 6.9129074 -6.49185422 0 0 0 Z " fill="#E8315A" transform="translate(275,135)"/>
<path d="M0 0 C2 0.66666667 4 1.33333333 6 2 C7.155 1.979375 8.31 1.95875 9.5 1.9375 C13 2 13 2 16 4 C16.268125 4.66 16.53625 5.32 16.8125 6 C18.56016993 8.94344409 20.79883842 9.16491437 24 10 C24 10.66 24 11.32 24 12 C24.66 12 25.32 12 26 12 C26.66 13.32 27.32 14.64 28 16 C27.01 16.33 26.02 16.66 25 17 C23.421875 15.890625 23.421875 15.890625 21.75 14.25 C15.5833833 8.64280212 8.55799078 6.65555023 0.24609375 6.78125 C-6.66089038 7.45393019 -12.51124066 9.84996245 -18 14 C-18.99 14.66 -19.98 15.32 -21 16 C-21.33 14.68 -21.66 13.36 -22 12 C-21.34 12 -20.68 12 -20 12 C-20 11.34 -20 10.68 -20 10 C-16.91190305 8.23537317 -15.76687864 8 -12 8 C-12 7.34 -12 6.68 -12 6 C-8.38026598 4.68373308 -5.90432869 4 -2 4 C-2 3.34 -2 2.68 -2 2 C-1.34 2 -0.68 2 0 2 C0 1.34 0 0.68 0 0 Z " fill="#EA3157" transform="translate(288,160)"/>
<path d="M0 0 C4.78635101 4.78635101 4.91335985 11.56263704 5 18 C4.10159007 29.16357527 -1.49175998 37.05900839 -9 45 C-8.236875 45.268125 -7.47375 45.53625 -6.6875 45.8125 C-4.12619116 46.94424112 -2.80307062 47.91223401 -1 50 C-2.98 50.495 -2.98 50.495 -5 51 C-5 50.34 -5 49.68 -5 49 C-6.32 49 -7.64 49 -9 49 C-9 48.34 -9 47.68 -9 47 C-9.66 47 -10.32 47 -11 47 C-11 45.02 -11 43.04 -11 41 C-10.34 41 -9.68 41 -9 41 C-9 40.34 -9 39.68 -9 39 C-8.34 39 -7.68 39 -7 39 C-7 37.68 -7 36.36 -7 35 C-6.34 35 -5.68 35 -5 35 C-5 34.34 -5 33.68 -5 33 C-4.34 33 -3.68 33 -3 33 C-3 32.34 -3 31.68 -3 31 C-2.34 31 -1.68 31 -1 31 C-1 29.68 -1 28.36 -1 27 C-0.34 27 0.32 27 1 27 C1.054138 24.75026553 1.09285491 22.50015617 1.125 20.25 C1.14820313 18.99703125 1.17140625 17.7440625 1.1953125 16.453125 C1.00781631 13.13819228 0.48492258 11.82614297 -1 9 C-0.9765625 6.640625 -0.9765625 6.640625 -0.625 4.25 C-0.45871094 3.05117187 -0.45871094 3.05117187 -0.2890625 1.828125 C-0.14597656 0.92320313 -0.14597656 0.92320313 0 0 Z " fill="#D6385B" transform="translate(235,93)"/>
<path d="M0 0 C1.65 0 3.3 0 5 0 C5 0.66 5 1.32 5 2 C5.66 2 6.32 2 7 2 C7 2.66 7 3.32 7 4 C7.66 4 8.32 4 9 4 C9 4.66 9 5.32 9 6 C9.66 6 10.32 6 11 6 C11 6.66 11 7.32 11 8 C11.66 8 12.32 8 13 8 C13.33 9.98 13.66 11.96 14 14 C19.28 14.66 24.56 15.32 30 16 C27.00636226 18.99363774 23.87474515 19.17154648 19.75 19.3125 C14.64502262 19.2871021 11.36744328 17.54105791 7 15 C7.33 13.68 7.66 12.36 8 11 C7.01 10.67 6.02 10.34 5 10 C5 9.34 5 8.68 5 8 C4.34 8 3.68 8 3 8 C3 7.34 3 6.68 3 6 C2.34 6 1.68 6 1 6 C1 5.34 1 4.68 1 4 C0.01 4 -0.98 4 -2 4 C-2 3.34 -2 2.68 -2 2 C-1.34 2 -0.68 2 0 2 C0 1.34 0 0.68 0 0 Z " fill="#F6345A" transform="translate(227,306)"/>
<path d="M0 0 C0.66 0 1.32 0 2 0 C5.82981182 8.90211985 9.22849069 17.24591804 10 27 C10.05414063 27.65355469 10.10828125 28.30710938 10.1640625 28.98046875 C10.54011172 38.09111564 8.49486486 48.61483862 5 57 C3.515 57.495 3.515 57.495 2 58 C2 56.02 2 54.04 2 52 C2.66 52 3.32 52 4 52 C4 51.34 4 50.68 4 50 C4.66 50 5.32 50 6 50 C5.98839844 49.27554688 5.97679687 48.55109375 5.96484375 47.8046875 C5.91768689 42.75216677 5.92622436 37.96621233 7 33 C6.67 33 6.34 33 6 33 C5.94392578 31.2984375 5.94392578 31.2984375 5.88671875 29.5625 C5.56880876 21.79050532 5.23633924 15.17623049 2 8 C2 6.68 2 5.36 2 4 C1.34 4 0.68 4 0 4 C0 2.68 0 1.36 0 0 Z " fill="#E53860" transform="translate(346,166)"/>
<path d="M0 0 C1.32 0 2.64 0 4 0 C4.05392397 2.77109307 4.09363455 5.54113818 4.125 8.3125 C4.14175781 9.09818359 4.15851563 9.88386719 4.17578125 10.69335938 C4.18222656 11.45068359 4.18867188 12.20800781 4.1953125 12.98828125 C4.20578613 13.68477783 4.21625977 14.38127441 4.22705078 15.09887695 C4 17 4 17 2 20 C1.67 17.69 1.34 15.38 1 13 C0.61328125 13.67546875 0.2265625 14.3509375 -0.171875 15.046875 C-0.69265625 15.93890625 -1.2134375 16.8309375 -1.75 17.75 C-2.26046875 18.63171875 -2.7709375 19.5134375 -3.296875 20.421875 C-5 23 -5 23 -7.20703125 25.19921875 C-7.79871094 25.79347656 -8.39039063 26.38773438 -9 27 C-8.91773794 29.71464802 -8.23959034 30.73165881 -6.4375 32.75 C-5.7259375 33.36875 -5.7259375 33.36875 -5 34 C-6.65 34 -8.3 34 -10 34 C-10 33.34 -10 32.68 -10 32 C-10.99 31.67 -11.98 31.34 -13 31 C-13.33 29.35 -13.66 27.7 -14 26 C-13.21625 25.9175 -12.4325 25.835 -11.625 25.75 C-8.89126491 25.27540932 -8.89126491 25.27540932 -7.75 23.125 C-7.14919925 21.42273121 -6.57084854 19.71254562 -6 18 C-5.34 17.67 -4.68 17.34 -4 17 C-3.38012779 14.35770305 -3.38012779 14.35770305 -3 11.25 C-2.44050808 7.19368355 -1.66611524 3.74875929 0 0 Z " fill="#E73B60" transform="translate(320,102)"/>
<path d="M0 0 C0 0.66 0 1.32 0 2 C-6.27 2 -12.54 2 -19 2 C-19 2.66 -19 3.32 -19 4 C-20.98 4 -22.96 4 -25 4 C-25 4.66 -25 5.32 -25 6 C-24.34 6 -23.68 6 -23 6 C-23 7.32 -23 8.64 -23 10 C-25.66666667 9.33333333 -28.33333333 8.66666667 -31 8 C-31.66 9.32 -32.32 10.64 -33 12 C-33.66 12 -34.32 12 -35 12 C-35 14.64 -35 17.28 -35 20 C-36.98 20 -38.96 20 -41 20 C-39.01353191 12.93700234 -32.94695533 6.9955151 -26.93359375 3.03125 C-18.7244874 -1.34694006 -8.98255374 -2.59031782 0 0 Z " fill="#E42E53" transform="translate(215,76)"/>
<path d="M0 0 C0.66 0.33 1.32 0.66 2 1 C1.67 3.64 1.34 6.28 1 9 C0.34 9 -0.32 9 -1 9 C-2.7038493 14.25699844 -3.38998394 19.05431116 -3.625 24.5625 C-3.66367188 25.29146484 -3.70234375 26.02042969 -3.7421875 26.77148438 C-3.94782466 30.85117878 -4.03872933 34.9140559 -4 39 C-5.485 39.495 -5.485 39.495 -7 40 C-11.20468161 27.38595517 -5.27285597 11.33664034 0 0 Z " fill="#E34165" transform="translate(146,166)"/>
<path d="M0 0 C10.41021639 1.49518368 18.69504313 10.011961 26 17 C24.140625 17.58203125 24.140625 17.58203125 22 18 C19.75 16.6875 19.75 16.6875 18 15 C18 14.34 18 13.68 18 13 C17.34 13 16.68 13 16 13 C16 12.34 16 11.68 16 11 C15.236875 11.20625 14.47375 11.4125 13.6875 11.625 C11 12 11 12 8 10 C8 9.34 8 8.68 8 8 C5.17152224 5.38103911 2.78786597 4.5260925 -1 4 C-0.67 2.68 -0.34 1.36 0 0 Z " fill="#F32851" transform="translate(314,137)"/>
<path d="M0 0 C3.465 1.485 3.465 1.485 7 3 C6.67 3.99 6.34 4.98 6 6 C-2.74254077 9.44876202 -12.20484805 10.60826747 -21 7 C-18 5 -18 5 -14 5 C-14 5.66 -14 6.32 -14 7 C-12.94232422 6.50886719 -12.94232422 6.50886719 -11.86328125 6.0078125 C-8.76132833 4.91599278 -6.45993947 4.79614604 -3.1875 4.875 C-1.72376953 4.90207031 -1.72376953 4.90207031 -0.23046875 4.9296875 C0.50558594 4.95289063 1.24164063 4.97609375 2 5 C1.34 3.35 0.68 1.7 0 0 Z " fill="#E3446A" transform="translate(354,133)"/>
<path d="M0 0 C0.99 0 1.98 0 3 0 C1.33255693 4.26699718 -1.7509039 7.08234918 -4.9375 10.25 C-5.74477539 11.08144531 -5.74477539 11.08144531 -6.56835938 11.9296875 C-7.98575654 13.34883239 -9.48860308 14.68141504 -11 16 C-11.99 16 -12.98 16 -14 16 C-14 14.68 -14 13.36 -14 12 C-12.68 12 -11.36 12 -10 12 C-10 10.68 -10 9.36 -10 8 C-10.66 8 -11.32 8 -12 8 C-12 7.34 -12 6.68 -12 6 C-12.66 6 -13.32 6 -14 6 C-14 4.68 -14 3.36 -14 2 C-13.34 2 -12.68 2 -12 2 C-12 2.66 -12 3.32 -12 4 C-11.34 4 -10.68 4 -10 4 C-10 4.66 -10 5.32 -10 6 C-9.34 6 -8.68 6 -8 6 C-8 6.66 -8 7.32 -8 8 C-7.34 8 -6.68 8 -6 8 C-6 7.34 -6 6.68 -6 6 C-5.34 6 -4.68 6 -4 6 C-4 5.34 -4 4.68 -4 4 C-3.34 4 -2.68 4 -2 4 C-2 3.34 -2 2.68 -2 2 C-1.34 2 -0.68 2 0 2 C0 1.34 0 0.68 0 0 Z " fill="#E83157" transform="translate(262,176)"/>
<path d="M0 0 C0.66 0 1.32 0 2 0 C2.33 0.66 2.66 1.32 3 2 C3.66 2 4.32 2 5 2 C5.33 2.99 5.66 3.98 6 5 C6.99 5.33 7.98 5.66 9 6 C9 6.66 9 7.32 9 8 C10.98 8 12.96 8 15 8 C15 8.66 15 9.32 15 10 C17.97 10.495 17.97 10.495 21 11 C21 11.33 21 11.66 21 12 C10.21548017 13.58241758 10.21548017 13.58241758 6 11.5625 C0 3.875 0 3.875 0 0 Z " fill="#FD2B57" transform="translate(323,126)"/>
<path d="M0 0 C5.55053101 0.64044589 9.1138959 4.90941034 12.4375 9 C14 12 14 12 13.75 14.875 C13.5025 15.57625 13.255 16.2775 13 17 C10.36 16.34 7.72 15.68 5 15 C5.99 14.67 6.98 14.34 8 14 C8.66 14.33 9.32 14.66 10 15 C10 14.34 10 13.68 10 13 C7.69 12.67 5.38 12.34 3 12 C3 10.68 3 9.36 3 8 C4.32 8 5.64 8 7 8 C7 8.99 7 9.98 7 11 C7.99 11 8.98 11 10 11 C9.175 10.21625 8.35 9.4325 7.5 8.625 C5 6 5 6 5 4 C3.68 4 2.36 4 1 4 C0.67 2.68 0.34 1.36 0 0 Z " fill="#F7294D" transform="translate(221,80)"/>
<path d="M0 0 C0.99 0.33 1.98 0.66 3 1 C2.34 1 1.68 1 1 1 C1.33 3.97 1.66 6.94 2 10 C-0.64 10 -3.28 10 -6 10 C-6.99 11.98 -7.98 13.96 -9 16 C-10.32 15.67 -11.64 15.34 -13 15 C-10.78113671 10.90874045 -8.13984728 7.92842268 -4.8125 4.6875 C-3.91144531 3.80449219 -3.01039063 2.92148437 -2.08203125 2.01171875 C-1.39496094 1.34785156 -0.70789063 0.68398438 0 0 Z " fill="#F02B54" transform="translate(270,262)"/>
<path d="M0 0 C0.99 0 1.98 0 3 0 C3 0.66 3 1.32 3 2 C3.66 2 4.32 2 5 2 C5 2.66 5 3.32 5 4 C5.66 4 6.32 4 7 4 C7.33 2.68 7.66 1.36 8 0 C8.99 0.33 9.98 0.66 11 1 C11 2.65 11 4.3 11 6 C10.34 6 9.68 6 9 6 C8.34 7.32 7.68 8.64 7 10 C4.37812506 8.95125002 3.20628639 8.35068687 1.75 5.875 C1.5025 5.25625 1.255 4.6375 1 4 C0.34 4 -0.32 4 -1 4 C-0.67 2.68 -0.34 1.36 0 0 Z " fill="#FB375F" transform="translate(321,240)"/>
<path d="M0 0 C5.94 0 11.88 0 18 0 C18 0.99 18 1.98 18 3 C17.39414063 2.96519531 16.78828125 2.93039063 16.1640625 2.89453125 C9.56324132 2.68127395 4.20067142 3.8041659 -2 6 C-2.99 6.33 -3.98 6.66 -5 7 C-5.33 6.01 -5.66 5.02 -6 4 C-5.34 4 -4.68 4 -4 4 C-4 3.34 -4 2.68 -4 2 C-2.68 2 -1.36 2 0 2 C0 1.34 0 0.68 0 0 Z " fill="#D64C6A" transform="translate(192,164)"/>
<path d="M0 0 C1.32 0 2.64 0 4 0 C4 0.66 4 1.32 4 2 C5.98 2 7.96 2 10 2 C10 2.66 10 3.32 10 4 C11.98 4.66 13.96 5.32 16 6 C16 6.66 16 7.32 16 8 C16.66 8 17.32 8 18 8 C18.66 9.32 19.32 10.64 20 12 C19.01 12.33 18.02 12.66 17 13 C15.421875 11.890625 15.421875 11.890625 13.75 10.25 C9.07175465 5.99615243 4.30838354 3.95581569 -2 3 C-1.34 2.67 -0.68 2.34 0 2 C0 1.34 0 0.68 0 0 Z " fill="#DD4D6E" transform="translate(296,164)"/>
<path d="M0 0 C-0.33 1.32 -0.66 2.64 -1 4 C-1.66 4 -2.32 4 -3 4 C-3 5.98 -3 7.96 -3 10 C-2.01 10 -1.02 10 0 10 C0.33 11.98 0.66 13.96 1 16 C0.34 16 -0.32 16 -1 16 C-4.82789525 11.74269342 -8 6.82948046 -8 1 C-5.07175348 0.02391783 -3.04386724 -0.08226668 0 0 Z " fill="#EB3058" transform="translate(271,112)"/>
<path d="M0 0 C1.65 0 3.3 0 5 0 C5 1.32 5 2.64 5 4 C6.65 3.67 8.3 3.34 10 3 C10.33 3.99 10.66 4.98 11 6 C10.34 6 9.68 6 9 6 C9 6.66 9 7.32 9 8 C9.66 8 10.32 8 11 8 C11 9.32 11 10.64 11 12 C10.34 12 9.68 12 9 12 C9 11.34 9 10.68 9 10 C8.34 10 7.68 10 7 10 C7 9.34 7 8.68 7 8 C5.68 8 4.36 8 3 8 C3 7.01 3 6.02 3 5 C1.35 5 -0.3 5 -2 5 C-1.34 3.35 -0.68 1.7 0 0 Z " fill="#EF3256" transform="translate(277,132)"/>
<path d="M0 0 C0.90922753 2.47819942 1.18726604 3.57208067 0.109375 6.03515625 C-0.33921875 6.70417969 -0.7878125 7.37320313 -1.25 8.0625 C-1.68828125 8.73410156 -2.1265625 9.40570313 -2.578125 10.09765625 C-4 12 -4 12 -5.6796875 13.62109375 C-6.11539062 14.07613281 -6.55109375 14.53117188 -7 15 C-6.83394098 17.65694438 -6.21086001 18.76383679 -4.4375 20.75 C-3.963125 21.1625 -3.48875 21.575 -3 22 C-4.65 22 -6.3 22 -8 22 C-8 21.34 -8 20.68 -8 20 C-8.99 19.67 -9.98 19.34 -11 19 C-11.33 17.35 -11.66 15.7 -12 14 C-11.21625 13.9175 -10.4325 13.835 -9.625 13.75 C-6.89126491 13.27540932 -6.89126491 13.27540932 -5.75 11.125 C-5.14919925 9.42273121 -4.57084854 7.71254562 -4 6 C-3.34 5.67 -2.68 5.34 -2 5 C-1.27840576 3.35636866 -0.60648579 1.68949614 0 0 Z " fill="#D42F53" transform="translate(318,114)"/>
<path d="M0 0 C0 0.66 0 1.32 0 2 C0.66 2 1.32 2 2 2 C2 2.66 2 3.32 2 4 C1.34 4 0.68 4 0 4 C-0.33 4.66 -0.66 5.32 -1 6 C-1.33 5.67 -1.66 5.34 -2 5 C-3.66617115 4.95936168 -5.33388095 4.957279 -7 5 C-7.66 6.32 -8.32 7.64 -9 9 C-9.66 9 -10.32 9 -11 9 C-10.67 7.35 -10.34 5.7 -10 4 C-9.34 4 -8.68 4 -8 4 C-8 3.34 -8 2.68 -8 2 C-8.66 2 -9.32 2 -10 2 C-10 1.34 -10 0.68 -10 0 C-6.30458414 -0.95024979 -3.69541586 -0.95024979 0 0 Z " fill="#FA385F" transform="translate(314,258)"/>
<path d="M0 0 C0.99 0 1.98 0 3 0 C3.33 1.32 3.66 2.64 4 4 C4.66 4 5.32 4 6 4 C6 4.66 6 5.32 6 6 C6.66 6 7.32 6 8 6 C8 7.98 8 9.96 8 12 C8.66 12 9.32 12 10 12 C10 15.96 10 19.92 10 24 C9.67 24 9.34 24 9 24 C8.79375 22.7625 8.5875 21.525 8.375 20.25 C7.21534973 14.9173017 4.87703695 10.40299902 2.33984375 5.6015625 C1 3 1 3 0 0 Z " fill="#DD325B" transform="translate(314,176)"/>
<path d="M0 0 C0 0.66 0 1.32 0 2 C-0.97839844 2.25523437 -0.97839844 2.25523437 -1.9765625 2.515625 C-7.39303599 4.017538 -11.51837536 5.61145454 -16 9 C-16.99 9.66 -17.98 10.32 -19 11 C-19.33 9.68 -19.66 8.36 -20 7 C-19.34 7 -18.68 7 -18 7 C-18 6.34 -18 5.68 -18 5 C-14.91190305 3.23537317 -13.76687864 3 -10 3 C-10 2.34 -10 1.68 -10 1 C-3.71428571 -1.42857143 -3.71428571 -1.42857143 0 0 Z " fill="#D54162" transform="translate(286,165)"/>
<path d="M0 0 C3.59696835 3.59696835 4.27222257 7.68251782 4.6875 12.625 C4.77386719 13.56601563 4.86023438 14.50703125 4.94921875 15.4765625 C5 18 5 18 4 21 C3.34 21 2.68 21 2 21 C1.86722656 20.18015625 1.73445312 19.3603125 1.59765625 18.515625 C1.42105469 17.43796875 1.24445313 16.3603125 1.0625 15.25 C0.88847656 14.18265625 0.71445313 13.1153125 0.53515625 12.015625 C0.0650702 9.11619121 0.0650702 9.11619121 -0.59375 6.78125 C-1.15146606 4.33587958 -0.6007662 2.40306479 0 0 Z " fill="#E04567" transform="translate(235,93)"/>
<path d="M0 0 C1.32 0 2.64 0 4 0 C4 0.66 4 1.32 4 2 C9.61 2 15.22 2 21 2 C17.95453688 5.04546312 14.81492145 5.16179113 10.625 5.25 C6.43187504 5.22227686 3.61081409 4.22203944 0 2 C0 1.34 0 0.68 0 0 Z " fill="#D74066" transform="translate(236,320)"/>
<path d="M0 0 C0 0.66 0 1.32 0 2 C-1.32 2 -2.64 2 -4 2 C-4 2.66 -4 3.32 -4 4 C-5.32 4 -6.64 4 -8 4 C-8 5.32 -8 6.64 -8 8 C-8.66 8 -9.32 8 -10 8 C-10 8.66 -10 9.32 -10 10 C-11.65 10 -13.3 10 -15 10 C-15 9.01 -15 8.02 -15 7 C-12.98828125 5.17578125 -12.98828125 5.17578125 -10.3125 3.3125 C-9.44238281 2.68988281 -8.57226562 2.06726563 -7.67578125 1.42578125 C-4.80841471 -0.10208559 -3.19322078 -0.3049382 0 0 Z " fill="#DF3F61" transform="translate(176,140)"/>
<path d="M0 0 C1.125 1.75 1.125 1.75 2 4 C1.1875 6 1.1875 6 0 8 C-0.36784131 9.3242287 -0.71202981 10.65613912 -1 12 C-2.32 12.33 -3.64 12.66 -5 13 C-5.33 14.65 -5.66 16.3 -6 18 C-6.99 18.33 -7.98 18.66 -9 19 C-9 15.44270343 -8.22378835 14.58395849 -6.1875 11.75 C-3.54781186 7.93711712 -1.65539842 4.3224292 0 0 Z " fill="#E13B5D" transform="translate(321,204)"/>
<path d="M0 0 C2.475 0.495 2.475 0.495 5 1 C5 1.66 5 2.32 5 3 C5.66 3 6.32 3 7 3 C7 3.66 7 4.32 7 5 C7.66 5 8.32 5 9 5 C9 5.66 9 6.32 9 7 C9.66 7 10.32 7 11 7 C11 7.66 11 8.32 11 9 C11.66 9 12.32 9 13 9 C13 9.66 13 10.32 13 11 C13.66 11 14.32 11 15 11 C15.33 12.32 15.66 13.64 16 15 C11.69422496 13.33830526 8.90988145 10.16919694 5.75 6.9375 C5.19570312 6.38255859 4.64140625 5.82761719 4.0703125 5.25585938 C0 1.14043257 0 1.14043257 0 0 Z " fill="#D82C50" transform="translate(161,247)"/>
<path d="M0 0 C0.33 0 0.66 0 1 0 C1 5.61 1 11.22 1 17 C0.01 17.33 -0.98 17.66 -2 18 C-2 12.72 -2 7.44 -2 2 C-1.34 2 -0.68 2 0 2 C0 1.34 0 0.68 0 0 Z " fill="#E8345D" transform="translate(172,186)"/>
<path d="M0 0 C1.32 0 2.64 0 4 0 C4 1.32 4 2.64 4 4 C5.98 3.34 7.96 2.68 10 2 C10 2.66 10 3.32 10 4 C9.34 4 8.68 4 8 4 C8 4.66 8 5.32 8 6 C7.34 6 6.68 6 6 6 C6 6.66 6 7.32 6 8 C5.34 8 4.68 8 4 8 C4 8.66 4 9.32 4 10 C3.34 10 2.68 10 2 10 C1.67 9.01 1.34 8.02 1 7 C1.33 6.34 1.66 5.68 2 5 C1.34 4.67 0.68 4.34 0 4 C0 2.68 0 1.36 0 0 Z " fill="#F83560" transform="translate(274,290)"/>
<path d="M0 0 C1.04285156 -0.01417969 2.08570313 -0.02835937 3.16015625 -0.04296875 C5.9375 0.1875 5.9375 0.1875 8.9375 2.1875 C6.1180932 3.5972034 3.70482774 3.35734647 0.5625 3.375 C-0.57960938 3.38917969 -1.72171875 3.40335937 -2.8984375 3.41796875 C-5.90186816 3.19920034 -7.54175934 2.75830637 -10.0625 1.1875 C-6.67371636 0.16678204 -3.53093119 0.0218769 0 0 Z " fill="#E9426B" transform="translate(292.0625,76.8125)"/>
<path d="M0 0 C4.75481646 0.57634139 7.97048212 2.55068521 12 5 C11.67 5.66 11.34 6.32 11 7 C8.625 7.125 8.625 7.125 6 7 C5.34 6.34 4.68 5.68 4 5 C1.42938689 4.35232207 1.42938689 4.35232207 -1 4 C-0.67 2.68 -0.34 1.36 0 0 Z " fill="#E72E58" transform="translate(314,137)"/>
<path d="M0 0 C-0.72316406 0.77923828 -0.72316406 0.77923828 -1.4609375 1.57421875 C-6.1876792 6.69507421 -6.1876792 6.69507421 -9 13 C-11 10 -11 10 -10.625 7.8125 C-10.41875 7.214375 -10.2125 6.61625 -10 6 C-9.34 6 -8.68 6 -8 6 C-8 4.68 -8 3.36 -8 2 C-7.34 2 -6.68 2 -6 2 C-6 1.34 -6 0.68 -6 0 C-3 -1 -3 -1 0 0 Z " fill="#DA5773" transform="translate(184,174)"/>
<path d="M0 0 C0 0.66 0 1.32 0 2 C-0.66 2 -1.32 2 -2 2 C-2 2.66 -2 3.32 -2 4 C-4.31 4.66 -6.62 5.32 -9 6 C-9.33 4.35 -9.66 2.7 -10 1 C-3.71428571 -1.42857143 -3.71428571 -1.42857143 0 0 Z " fill="#FD345D" transform="translate(298,278)"/>
<path d="M0 0 C1.93822596 0.03305502 3.87585668 0.10249905 5.8125 0.1875 C6.89144531 0.22230469 7.97039062 0.25710937 9.08203125 0.29296875 C12 1 12 1 13.88671875 3.55078125 C14.25410156 4.35902344 14.62148438 5.16726562 15 6 C14.01 6 13.02 6 12 6 C12 5.34 12 4.68 12 4 C8.04 4 4.08 4 0 4 C0 2.68 0 1.36 0 0 Z " fill="#E23860" transform="translate(314,88)"/>
<path d="M0 0 C0.99 0.33 1.98 0.66 3 1 C2.06409496 2.1055189 1.12620142 3.20935453 0.1875 4.3125 C-0.33457031 4.92738281 -0.85664063 5.54226563 -1.39453125 6.17578125 C-4.3373102 9.51952278 -4.3373102 9.51952278 -6 11 C-6.66 11 -7.32 11 -8 11 C-8 9.35 -8 7.7 -8 6 C-6.68 6 -5.36 6 -4 6 C-4 5.34 -4 4.68 -4 4 C-3.34 4 -2.68 4 -2 4 C-2 3.34 -2 2.68 -2 2 C-1.34 2 -0.68 2 0 2 C0 1.34 0 0.68 0 0 Z " fill="#D74564" transform="translate(266,310)"/>
<path d="M0 0 C0.66 0 1.32 0 2 0 C2.84442881 1.89091736 3.67511587 3.78797515 4.5 5.6875 C4.9640625 6.74324219 5.428125 7.79898438 5.90625 8.88671875 C6.94950801 11.85627816 7.23065301 13.89195063 7 17 C3.89531014 14.45979921 3.01514064 11.82629933 2 8 C2 6.68 2 5.36 2 4 C1.34 4 0.68 4 0 4 C0 2.68 0 1.36 0 0 Z " fill="#DA2B50" transform="translate(346,166)"/>
<path d="M0 0 C1.08784335 3.31395986 1.07262544 3.83580335 -0.4375 7.25 C-0.953125 8.1575 -1.46875 9.065 -2 10 C-2.99 9.67 -3.98 9.34 -5 9 C-5 9.66 -5 10.32 -5 11 C-5.99 11 -6.98 11 -8 11 C-6.63629701 8.00779732 -5.05091917 5.70973471 -2.875 3.25 C-2.33617187 2.63640625 -1.79734375 2.0228125 -1.2421875 1.390625 C-0.62730469 0.70226562 -0.62730469 0.70226562 0 0 Z " fill="#E3476A" transform="translate(159,149)"/>
<path d="M0 0 C0.76953125 1.703125 0.76953125 1.703125 1 4 C-0.80078125 6.359375 -0.80078125 6.359375 -3.3125 8.75 C-4.54419922 9.94882812 -4.54419922 9.94882812 -5.80078125 11.171875 C-8 13 -8 13 -10 13 C-10 12.01 -10 11.02 -10 10 C-9.34 10 -8.68 10 -8 10 C-8 9.34 -8 8.68 -8 8 C-7.34 8 -6.68 8 -6 8 C-6 7.34 -6 6.68 -6 6 C-5.34 6 -4.68 6 -4 6 C-4 5.34 -4 4.68 -4 4 C-3.34 4 -2.68 4 -2 4 C-2 3.34 -2 2.68 -2 2 C-1.34 2 -0.68 2 0 2 C0 1.34 0 0.68 0 0 Z " fill="#CE3A5A" transform="translate(278,298)"/>
<path d="M0 0 C0.66 1.32 1.32 2.64 2 4 C1.01 5.485 1.01 5.485 0 7 C-0.38499891 8.65549531 -0.72793135 10.3222433 -1 12 C-1.66 12 -2.32 12 -3 12 C-3 10.68 -3 9.36 -3 8 C-3.66 8 -4.32 8 -5 8 C-5 6.02 -5 4.04 -5 2 C-4.01 2.495 -4.01 2.495 -3 3 C-3.33 3.66 -3.66 4.32 -4 5 C-3.34 5 -2.68 5 -2 5 C-1.34 3.35 -0.68 1.7 0 0 Z " fill="#EF385E" transform="translate(345,162)"/>
<path d="M0 0 C2.4609375 -0.328125 2.4609375 -0.328125 5.375 -0.25 C6.33148438 -0.23453125 7.28796875 -0.2190625 8.2734375 -0.203125 C10.65092983 -0.02600523 12.72022692 0.33011407 15 1 C15 1.66 15 2.32 15 3 C9.39 3 3.78 3 -2 3 C-1.34 2.01 -0.68 1.02 0 0 Z " fill="#E64468" transform="translate(200,75)"/>
<path d="M0 0 C0.66 0 1.32 0 2 0 C2.26554688 0.68707031 2.53109375 1.37414062 2.8046875 2.08203125 C3.15789062 2.98308594 3.51109375 3.88414062 3.875 4.8125 C4.39707031 6.15248047 4.39707031 6.15248047 4.9296875 7.51953125 C5.98832155 10.17711591 5.98832155 10.17711591 8 13 C7.34 13.66 6.68 14.32 6 15 C6 14.34 6 13.68 6 13 C5.34 13 4.68 13 4 13 C3.34 11.02 2.68 9.04 2 7 C1.34 7 0.68 7 0 7 C0 4.69 0 2.38 0 0 Z " fill="#D1395B" transform="translate(172,205)"/>
<path d="M0 0 C0.33 0 0.66 0 1 0 C2.14064278 6.5327723 2.34965586 12.04505625 -1 18 C-1.99 18.33 -2.98 18.66 -4 19 C-4 17.02 -4 15.04 -4 13 C-3.34 13 -2.68 13 -2 13 C-2 12.34 -2 11.68 -2 11 C-1.34 11 -0.68 11 0 11 C0 7.37 0 3.74 0 0 Z " fill="#D6375C" transform="translate(352,205)"/>
<path d="M0 0 C0.99 0 1.98 0 3 0 C1.59155282 3.21524305 -0.10344786 5.32183868 -2.625 7.75 C-3.57246094 8.67039063 -3.57246094 8.67039063 -4.5390625 9.609375 C-5.02117187 10.06828125 -5.50328125 10.5271875 -6 11 C-6.99 10.67 -7.98 10.34 -9 10 C-7.625 8 -7.625 8 -6 6 C-5.34 6 -4.68 6 -4 6 C-4 5.34 -4 4.68 -4 4 C-3.34 4 -2.68 4 -2 4 C-2 3.34 -2 2.68 -2 2 C-1.34 2 -0.68 2 0 2 C0 1.34 0 0.68 0 0 Z " fill="#D22F55" transform="translate(262,176)"/>
<path d="M0 0 C0 0.66 0 1.32 0 2 C-0.73605469 2.06058594 -1.47210938 2.12117187 -2.23046875 2.18359375 C-3.20628906 2.26738281 -4.18210937 2.35117188 -5.1875 2.4375 C-6.15042969 2.51871094 -7.11335938 2.59992188 -8.10546875 2.68359375 C-10.78649602 2.97666151 -13.3662986 3.42703754 -16 4 C-16 2 -16 2 -14 0 C-9.05684409 -1.06617088 -4.95687482 -0.9104464 0 0 Z " fill="#FB2859" transform="translate(356,136)"/>
<path d="M0 0 C0.33 0 0.66 0 1 0 C1.20190089 6.35987804 0.6277833 11.85221129 -1 18 C-1.33 18 -1.66 18 -2 18 C-2.20852314 11.59370576 -2.1583195 6.07027358 0 0 Z " fill="#E03F65" transform="translate(355,193)"/>
<path d="M0 0 C4.04052022 1.34684007 4.77159201 3.44847477 7 7 C7.98866506 8.34175973 8.9838154 9.67896002 10 11 C9.01 11 8.02 11 7 11 C7 10.34 7 9.68 7 9 C6.01 9 5.02 9 4 9 C1.8125 7.3125 1.8125 7.3125 0 5 C-0.25 2.25 -0.25 2.25 0 0 Z " fill="#DF4B6D" transform="translate(342,121)"/>
<path d="M0 0 C2.475 0.495 2.475 0.495 5 1 C5.33 2.65 5.66 4.3 6 6 C4.68 6 3.36 6 2 6 C2 4.68 2 3.36 2 2 C1.34 2 0.68 2 0 2 C0 1.34 0 0.68 0 0 Z M7 0 C7.66 0 8.32 0 9 0 C9.625 1.8125 9.625 1.8125 10 4 C9.01 5.485 9.01 5.485 8 7 C7.34 5.02 6.68 3.04 6 1 C6.33 0.67 6.66 0.34 7 0 Z " fill="#F03259" transform="translate(308,112)"/>
<path d="M0 0 C4.95 0.99 4.95 0.99 10 2 C10 2.66 10 3.32 10 4 C10.66 4 11.32 4 12 4 C12 4.99 12 5.98 12 7 C10.56068883 6.54738642 9.12361001 6.08767021 7.6875 5.625 C6.88699219 5.36976563 6.08648437 5.11453125 5.26171875 4.8515625 C3 4 3 4 0 2 C0 1.34 0 0.68 0 0 Z " fill="#D92E52" transform="translate(210,164)"/>
<path d="M0 0 C3.35620271 1.38877354 5.07298728 2.91677965 7 6 C7 6.66 7 7.32 7 8 C6.01 7.67 5.02 7.34 4 7 C4 6.34 4 5.68 4 5 C2.02 5.66 0.04 6.32 -2 7 C-2.125 4.625 -2.125 4.625 -2 2 C-1.34 1.34 -0.68 0.68 0 0 Z " fill="#E32A4F" transform="translate(338,155)"/>
<path d="M0 0 C0.99 0 1.98 0 3 0 C2.72482232 4.67802059 0.66806114 6.74638753 -2.52734375 9.86328125 C-4 11 -4 11 -6 11 C-6 8 -6 8 -4.125 5.8125 C-2 4 -2 4 0 4 C0 2.68 0 1.36 0 0 Z " fill="#D94462" transform="translate(332,242)"/>
<path d="M0 0 C0.33 0.99 0.66 1.98 1 3 C0.54625 3.391875 0.0925 3.78375 -0.375 4.1875 C-2.27642919 6.30832487 -3.06204028 8.33042235 -4 11 C-5.32 10.67 -6.64 10.34 -8 10 C-5.83735988 6.01618925 -3.28788824 3.11016455 0 0 Z " fill="#DC3B5F" transform="translate(265,267)"/>
<path d="M0 0 C1.65 0 3.3 0 5 0 C5 2.64 5 5.28 5 8 C3.68 8 2.36 8 1 8 C0.67 5.36 0.34 2.72 0 0 Z " fill="#F43C61" transform="translate(249,150)"/>
<path d="M0 0 C0.66 0.33 1.32 0.66 2 1 C2 3.31 2 5.62 2 8 C0.02 8 -1.96 8 -4 8 C-2.87548273 5.0280615 -1.77706209 2.66559313 0 0 Z " fill="#E84162" transform="translate(178,88)"/>
<path d="M0 0 C1.65 0.33 3.3 0.66 5 1 C4.07038578 2.15224028 3.1309875 3.29659176 2.1875 4.4375 C1.40439453 5.39462891 1.40439453 5.39462891 0.60546875 6.37109375 C-1 8 -1 8 -4 9 C-4 8.01 -4 7.02 -4 6 C-3.34 6 -2.68 6 -2 6 C-2 5.34 -2 4.68 -2 4 C-1.34 4 -0.68 4 0 4 C0 2.68 0 1.36 0 0 Z " fill="#DB415F" transform="translate(300,274)"/>
<path d="M0 0 C2.0625 0.4375 2.0625 0.4375 4 1 C4 2.65 4 4.3 4 6 C1.03 5.505 1.03 5.505 -2 5 C-1.125 1.125 -1.125 1.125 0 0 Z " fill="#E52E51" transform="translate(254,316)"/>
<path d="M0 0 C0.33 0.66 0.66 1.32 1 2 C3.31 2 5.62 2 8 2 C8 2.66 8 3.32 8 4 C7.34 4 6.68 4 6 4 C6 4.66 6 5.32 6 6 C5.34 6 4.68 6 4 6 C3.67 6.66 3.34 7.32 3 8 C0.37613513 4.93882432 0 4.26826873 0 0 Z " fill="#F6335D" transform="translate(258,308)"/>
<path d="M0 0 C2.55337724 2.55337724 2.43261395 3.95274418 2.75 7.5 C2.84796875 8.4796875 2.9459375 9.459375 3.046875 10.46875 C3 13 3 13 1 15 C-0.44207941 12.11584117 -0.09394887 9.58278472 -0.0625 6.375 C-0.05347656 5.18648437 -0.04445313 3.99796875 -0.03515625 2.7734375 C-0.02355469 1.85820312 -0.01195312 0.94296875 0 0 Z " fill="#EC2B56" transform="translate(321,191)"/>
<path d="M0 0 C0.33 0.99 0.66 1.98 1 3 C-2.22791555 5.1519437 -3.28400809 5.20086443 -7 5 C-7 5.66 -7 6.32 -7 7 C-7.99 6.67 -8.98 6.34 -10 6 C-10 5.34 -10 4.68 -10 4 C-8.71086513 3.32845067 -7.41859796 2.66291141 -6.125 2 C-5.40570313 1.62875 -4.68640625 1.2575 -3.9453125 0.875 C-2 0 -2 0 0 0 Z " fill="#E74C6F" transform="translate(275,135)"/>
<path d="M0 0 C0.99 0 1.98 0 3 0 C3 1.32 3 2.64 3 4 C3.99 4 4.98 4 6 4 C6.33 5.98 6.66 7.96 7 10 C6.34 10 5.68 10 5 10 C3.7109375 8.57421875 3.7109375 8.57421875 2.375 6.6875 C1.92898438 6.07261719 1.48296875 5.45773438 1.0234375 4.82421875 C0 3 0 3 0 0 Z " fill="#DA4468" transform="translate(265,118)"/>
<path d="M0 0 C2.97 0.495 2.97 0.495 6 1 C6 1.66 6 2.32 6 3 C6.66 3 7.32 3 8 3 C8 3.66 8 4.32 8 5 C8.66 5 9.32 5 10 5 C9.67 5.99 9.34 6.98 9 8 C8.01 7.67 7.02 7.34 6 7 C6 6.34 6 5.68 6 5 C5.34 5 4.68 5 4 5 C4 4.34 4 3.68 4 3 C3.34 3 2.68 3 2 3 C2 2.34 2 1.68 2 1 C1.34 0.67 0.68 0.34 0 0 Z " fill="#FC2A56" transform="translate(226,309)"/>
<path d="M0 0 C3.465 1.485 3.465 1.485 7 3 C6.67 3.99 6.34 4.98 6 6 C3.6875 6.625 3.6875 6.625 1 7 C0.01 6.34 -0.98 5.68 -2 5 C-0.68 5 0.64 5 2 5 C1.34 3.35 0.68 1.7 0 0 Z " fill="#D25273" transform="translate(354,133)"/>
<path d="M0 0 C0 0.66 0 1.32 0 2 C-5.445 3.485 -5.445 3.485 -11 5 C-10.67 3.68 -10.34 2.36 -10 1 C-6.36961463 -0.69417984 -3.80522763 -1.46354909 0 0 Z " fill="#DE5573" transform="translate(286,165)"/>
<path d="M0 0 C6.54545455 3.81818182 6.54545455 3.81818182 9 6 C9 6.99 9 7.98 9 9 C8.34 9 7.68 9 7 9 C7 8.34 7 7.68 7 7 C5.02 6.34 3.04 5.68 1 5 C0.67 3.35 0.34 1.7 0 0 Z " fill="#DB526C" transform="translate(237,145)"/>
<path d="M0 0 C0.99 0 1.98 0 3 0 C3.66 0.66 4.32 1.32 5 2 C5.99 2.33 6.98 2.66 8 3 C8.33 3.99 8.66 4.98 9 6 C6.69 5.67 4.38 5.34 2 5 C2 4.01 2 3.02 2 2 C1.34 2 0.68 2 0 2 C0 1.34 0 0.68 0 0 Z " fill="#E43258" transform="translate(346,130)"/>
<path d="M0 0 C0.66 0 1.32 0 2 0 C2.33 0.66 2.66 1.32 3 2 C3.66 2 4.32 2 5 2 C6.4606285 4.64738916 7 5.89448334 7 9 C6.01 9 5.02 9 4 9 C3.3309224 7.68872739 2.66480194 6.3759455 2 5.0625 C1.62875 4.33160156 1.2575 3.60070312 0.875 2.84765625 C0 1 0 1 0 0 Z " fill="#DF4C6C" transform="translate(323,126)"/>
<path d="M0 0 C0.99 0 1.98 0 3 0 C2.50168276 3.68754757 1.89932357 5.60490662 -1 8 C-1.625 5.6875 -1.625 5.6875 -2 3 C-1.34 2.01 -0.68 1.02 0 0 Z " fill="#FC365F" transform="translate(273,117)"/>
<path d="M0 0 C2.5625 2.1875 2.5625 2.1875 5 5 C4.8125 7.8125 4.8125 7.8125 4 10 C1.16625119 6.79663178 0.4794463 4.21912747 0 0 Z " fill="#DA2D4E" transform="translate(143,219)"/>
<path d="M0 0 C2.97 0 5.94 0 9 0 C6.33684806 2.66315194 4.34655932 2.94426493 0.640625 3.09765625 C-0.14828125 3.08605469 -0.9371875 3.07445312 -1.75 3.0625 C-2.54921875 3.05347656 -3.3484375 3.04445313 -4.171875 3.03515625 C-4.77515625 3.02355469 -5.3784375 3.01195312 -6 3 C-6 2.67 -6 2.34 -6 2 C-4.02 2 -2.04 2 0 2 C0 1.34 0 0.68 0 0 Z " fill="#DE5979" transform="translate(248,322)"/>
<path d="M0 0 C0.33 0.66 0.66 1.32 1 2 C1.66 2 2.32 2 3 2 C3 2.99 3 3.98 3 5 C1.02 5.33 -0.96 5.66 -3 6 C-3 4.68 -3 3.36 -3 2 C-2.01 1.34 -1.02 0.68 0 0 Z " fill="#EF3154" transform="translate(293,272)"/>
<path d="M0 0 C4.38848574 1.46282858 6.04850413 4.44306908 9 8 C7.35 8 5.7 8 4 8 C4 7.34 4 6.68 4 6 C3.01 5.67 2.02 5.34 1 5 C0.67 3.35 0.34 1.7 0 0 Z " fill="#E04769" transform="translate(306,128)"/>
<path d="M0 0 C4.37859255 0.50522222 6.81651224 3.17827222 10 6 C9.34 6.66 8.68 7.32 8 8 C7.01 7.34 6.02 6.68 5 6 C5 5.34 5 4.68 5 4 C3.68 4 2.36 4 1 4 C0.67 2.68 0.34 1.36 0 0 Z " fill="#DD4568" transform="translate(221,80)"/>
<path d="M0 0 C-1.32 0.33 -2.64 0.66 -4 1 C-4 1.66 -4 2.32 -4 3 C-7 5 -7 5 -11 5 C-10 2 -10 2 -8.3125 0.8125 C-5.45030907 -0.19313465 -3.01172092 -0.13689641 0 0 Z " fill="#D62A4B" transform="translate(286,79)"/>
<path d="M0 0 C4.95 0.99 4.95 0.99 10 2 C10 2.66 10 3.32 10 4 C10.66 4 11.32 4 12 4 C12 4.66 12 5.32 12 6 C10.68 6 9.36 6 8 6 C8 5.01 8 4.02 8 3 C5.36 2.67 2.72 2.34 0 2 C0 1.34 0 0.68 0 0 Z " fill="#F33150" transform="translate(230,174)"/>
<path d="M0 0 C3.98175544 2.10148204 6.35039045 4.36905358 9 8 C6.03 7.505 6.03 7.505 3 7 C2.67 5.35 2.34 3.7 2 2 C1.34 2 0.68 2 0 2 C0 1.34 0 0.68 0 0 Z " fill="#E95777" transform="translate(331,147)"/>
<path d="M0 0 C2.97 0.495 2.97 0.495 6 1 C6.33 1.99 6.66 2.98 7 4 C6.67 4.66 6.34 5.32 6 6 C4.68 6 3.36 6 2 6 C2 4.35 2 2.7 2 1 C1.34 0.67 0.68 0.34 0 0 Z " fill="#E12E51" transform="translate(216,78)"/>
<path d="M0 0 C0.66 0.33 1.32 0.66 2 1 C1.67 1.99 1.34 2.98 1 4 C0.34 4 -0.32 4 -1 4 C-1.33 5.65 -1.66 7.3 -2 9 C-2.99 9.33 -3.98 9.66 -5 10 C-5 6.60406522 -4.47834052 5.93380119 -2.5 3.3125 C-2.0359375 2.68988281 -1.571875 2.06726563 -1.09375 1.42578125 C-0.7328125 0.95527344 -0.371875 0.48476562 0 0 Z " fill="#D83056" transform="translate(317,213)"/>
<path d="M0 0 C0.66 0 1.32 0 2 0 C2 0.66 2 1.32 2 2 C1.34 2 0.68 2 0 2 C0 5.3 0 8.6 0 12 C-0.99 11.34 -1.98 10.68 -3 10 C-3.52674528 6.75173746 -3.07696188 5.15742204 -1.625 2.1875 C-1.08875 1.465625 -0.5525 0.74375 0 0 Z " fill="#F02F58" transform="translate(174,178)"/>
<path d="M0 0 C3.87132028 0.57352893 6.08172796 2.48704352 9 5 C7.68 5.33 6.36 5.66 5 6 C5 5.34 5 4.68 5 4 C3.68 4 2.36 4 1 4 C0.67 2.68 0.34 1.36 0 0 Z " fill="#E34667" transform="translate(225,138)"/>
<path d="M0 0 C0.99 0 1.98 0 3 0 C3 1.32 3 2.64 3 4 C3.66 4 4.32 4 5 4 C4.67 5.32 4.34 6.64 4 8 C0 3.375 0 3.375 0 0 Z " fill="#DC4869" transform="translate(147,228)"/>
<path d="M0 0 C0.66 0 1.32 0 2 0 C2.33 2.97 2.66 5.94 3 9 C1.68 8.34 0.36 7.68 -1 7 C-0.67 4.69 -0.34 2.38 0 0 Z " fill="#E12C4E" transform="translate(178,122)"/>
<path d="M0 0 C1.73543126 2.60314689 2.61121812 3.98694043 3 7 C2.34 7.66 1.68 8.32 1 9 C-1 7 -1 7 -1.1875 3.9375 C-1 1 -1 1 0 0 Z " fill="#D74767" transform="translate(339,111)"/>
<path d="M0 0 C1.65 0.33 3.3 0.66 5 1 C4.67 2.65 4.34 4.3 4 6 C3.34 6 2.68 6 2 6 C2 4.68 2 3.36 2 2 C1.01 2.33 0.02 2.66 -1 3 C-0.67 2.01 -0.34 1.02 0 0 Z " fill="#E53556" transform="translate(252,148)"/>
<path d="M0 0 C0 0.66 0 1.32 0 2 C-1.32 2 -2.64 2 -4 2 C-4 2.66 -4 3.32 -4 4 C-5.32 4 -6.64 4 -8 4 C-8 3.34 -8 2.68 -8 2 C-4.77208445 -0.1519437 -3.71599191 -0.20086443 0 0 Z " fill="#D33452" transform="translate(176,140)"/>
<path d="M0 0 C0.33 0 0.66 0 1 0 C0.125 6.75 0.125 6.75 -1 9 C-1.66 9 -2.32 9 -3 9 C-2.69181644 7.68647977 -2.37832335 6.37420428 -2.0625 5.0625 C-1.88847656 4.33160156 -1.71445312 3.60070312 -1.53515625 2.84765625 C-1 1 -1 1 0 0 Z " fill="#EA3359" transform="translate(267,93)"/>
<path d="M0 0 C0.99 0 1.98 0 3 0 C2.50168276 3.68754757 1.89932357 5.60490662 -1 8 C-0.67 5.36 -0.34 2.72 0 0 Z " fill="#D54664" transform="translate(344,228)"/>
<path d="M0 0 C0.99 0.33 1.98 0.66 3 1 C3 1.99 3 2.98 3 4 C0.69 4 -1.62 4 -4 4 C-2.68 2.68 -1.36 1.36 0 0 Z " fill="#DC516C" transform="translate(257,144)"/>
<path d="M0 0 C2.475 0.495 2.475 0.495 5 1 C5 1.99 5 2.98 5 4 C5.66 4.33 6.32 4.66 7 5 C5.35 5 3.7 5 2 5 C1.34 3.35 0.68 1.7 0 0 Z " fill="#D33555" transform="translate(232,143)"/>
<path d="M0 0 C4.75 0.75 4.75 0.75 7 3 C4.36 3.33 1.72 3.66 -1 4 C-0.67 2.68 -0.34 1.36 0 0 Z " fill="#E33F60" transform="translate(314,137)"/>
<path d="M0 0 C2.475 0.495 2.475 0.495 5 1 C5 2.65 5 4.3 5 6 C3.35 6 1.7 6 0 6 C0.99 5.67 1.98 5.34 3 5 C2.01 3.35 1.02 1.7 0 0 Z " fill="#E25873" transform="translate(179,131)"/>
<path d="M0 0 C0.33 0.99 0.66 1.98 1 3 C1.66 3 2.32 3 3 3 C3 5.31 3 7.62 3 10 C2.67 9.01 2.34 8.02 2 7 C1.34 7 0.68 7 0 7 C0 4.69 0 2.38 0 0 Z " fill="#D82B50" transform="translate(323,119)"/>
<path d="M0 0 C1.65 1.65 3.3 3.3 5 5 C4.67 5.99 4.34 6.98 4 8 C1.44971017 6.72485508 1.06918289 5.59658703 0 3 C0 2.01 0 1.02 0 0 Z " fill="#D3274B" transform="translate(230,87)"/>
<path d="M0 0 C0.33 0.66 0.66 1.32 1 2 C2.32 1.67 3.64 1.34 5 1 C4.67 2.32 4.34 3.64 4 5 C2.68 5 1.36 5 0 5 C0 3.35 0 1.7 0 0 Z " fill="#CC5774" transform="translate(245,190)"/>
<path d="M0 0 C0.99 0 1.98 0 3 0 C3.99 2.64 4.98 5.28 6 8 C5.34 8 4.68 8 4 8 C0 2.58823529 0 2.58823529 0 0 Z " fill="#D5284D" transform="translate(314,176)"/>
<path d="M0 0 C2.475 0.495 2.475 0.495 5 1 C5 1.99 5 2.98 5 4 C5.66 4 6.32 4 7 4 C7.33 4.99 7.66 5.98 8 7 C7.34 7 6.68 7 6 7 C6 6.34 6 5.68 6 5 C5.34 5 4.68 5 4 5 C4 4.34 4 3.68 4 3 C3.34 3 2.68 3 2 3 C2 2.34 2 1.68 2 1 C1.34 0.67 0.68 0.34 0 0 Z " fill="#D83C5D" transform="translate(326,145)"/>
<path d="M0 0 C0.33 0.66 0.66 1.32 1 2 C1.99 2 2.98 2 4 2 C4 2.66 4 3.32 4 4 C4.66 4.33 5.32 4.66 6 5 C3.125 4.6875 3.125 4.6875 0 4 C-0.66 3.01 -1.32 2.02 -2 1 C-1.34 0.67 -0.68 0.34 0 0 Z " fill="#D82A50" transform="translate(330,134)"/>
<path d="M0 0 C0.33 0.99 0.66 1.98 1 3 C1.66 3.33 2.32 3.66 3 4 C2.01 4.99 1.02 5.98 0 7 C-0.66 5.68 -1.32 4.36 -2 3 C-1.34 2.01 -0.68 1.02 0 0 Z " fill="#F0345B" transform="translate(309,121)"/>
<path d="M0 0 C0.33 0.99 0.66 1.98 1 3 C0.34 3.66 -0.32 4.32 -1 5 C-1.99 5 -2.98 5 -4 5 C-4 3.68 -4 2.36 -4 1 C-2.68 0.67 -1.36 0.34 0 0 Z " fill="#F33356" transform="translate(234,95)"/>
<path d="M0 0 C0.99 0.33 1.98 0.66 3 1 C-0.465 3.97 -0.465 3.97 -4 7 C-4 4 -4 4 -2 1.8125 C-1.34 1.214375 -0.68 0.61625 0 0 Z " fill="#D81E44" transform="translate(184,82)"/>
<path d="M0 0 C2.86724686 0.57344937 3.8614515 0.8614515 6 3 C6 3.99 6 4.98 6 6 C5.34 6 4.68 6 4 6 C4 5.34 4 4.68 4 4 C3.34 4 2.68 4 2 4 C1.34 2.68 0.68 1.36 0 0 Z " fill="#D22A4E" transform="translate(308,84)"/>
</svg>
